<svg xmlns="http://www.w3.org/2000/svg" xmlns:xlink="http://www.w3.org/1999/xlink" fill="none" version="1.1" width="512" height="512" viewBox="0 0 512 512"><defs><linearGradient x1="1.3018466234207153" y1="1.34315824508667" x2="-0.13044500350952148" y2="-0.11872625350952148" id="master_svg0_9_0390"><stop offset="4.107531905174255%" stop-color="#A42A28" stop-opacity="1"/><stop offset="100.00016689300537%" stop-color="#FA423F" stop-opacity="1"/></linearGradient></defs><g style="mix-blend-mode:passthrough"><g style="mix-blend-mode:passthrough"><rect x="0" y="0" width="512" height="512" rx="32" fill="url(#master_svg0_9_0390)" fill-opacity="1"/></g><g style="mix-blend-mode:passthrough"><path d="M279.719,123.2031Q294.656,126.7188,307.25,134.6406L307.25,138.1562Q307.25,138.4375,299.047,147.2344L300.219,149.2812L300.219,150.4531L295.828,155.1406L295.828,164.2188Q295.828,168.3281,297,174.4844Q294.656,178.2812,294.656,180.0469L297,181.2188L303.73400000000004,181.2188Q328.64099999999996,181.2188,333.328,166.5625L341.23400000000004,159.5312L342.406,159.5312Q348.562,159.5312,368.781,180.0469L368.781,184.7344Q364.969,194.9844,355,194.9844L351.48400000000004,194.9844Q349.438,194.9844,349.438,190.2969L348.26599999999996,190.2969Q340.35900000000004,191.4688,340.062,193.8125Q324.828,192.6406,307.25,189.125Q307.25,190.8906,303.73400000000004,192.6406L301.39099999999996,192.6406L295.828,191.4688L295.828,193.8125Q295.828,197.3281,297,197.3281L295.828,202.8906L295.828,219.89100000000002L293.48400000000004,228.094Q295.828,228.39100000000002,295.828,230.14100000000002L312.812,228.094L317.5,229.26600000000002Q326,226.922,327.76599999999996,226.922Q333.625,228.094,334.5,228.094Q348.26599999999996,225.75,348.26599999999996,222.23399999999998Q349.14099999999996,215.781,360.578,206.406Q384.297,215.5,384.594,217.844L384.594,226.922L382.25,230.14100000000002L383.422,237.172Q381.672,238.344,369.953,239.516L365.266,237.172Q359.688,237.172,359.688,239.516Q358.234,239.516,356.172,238.344Q334.5,238.344,334.5,251.828Q334.5,254.172,336.844,260.031Q335.078,267.062,332.156,269.10900000000004Q334.203,283.75,339.188,283.75Q347.688,283.75,356.172,278.188L355,275.844L355,274.672Q361.453,266.76599999999996,372,266.76599999999996Q386.359,266.76599999999996,390.156,287.26599999999996Q391.328,287.26599999999996,391.328,288.438Q389.281,293.422,386.938,294.01599999999996Q385.469,294.01599999999996,375.516,292.844Q374.641,292.844,368.781,294.01599999999996Q362.625,291.672,352.656,290.781L347.094,294.01599999999996L344.75,294.01599999999996Q342.10900000000004,291.672,340.062,291.672Q335.078,294.594,332.156,297.531Q336.844,315.39099999999996,336.844,328.281Q334.5,328.578,334.5,330.625L334.5,333.85900000000004L338.01599999999996,338.547L338.01599999999996,349.969Q338.01599999999996,351.14099999999996,336.844,351.14099999999996L338.01599999999996,353.188L338.01599999999996,359.047L329.812,369.312L332.156,372.531L332.156,373.703Q328.64099999999996,381.609,304.906,387.469L298.172,387.469Q271.797,365.203,271.797,363.453Q272.094,361.391,274.14099999999996,361.391Q276.48400000000004,361.688,276.48400000000004,363.453L286.75,361.391L294.656,362.281Q310.76599999999996,360.219,315.156,354.35900000000004Q317.5,354.35900000000004,317.5,352.01599999999996Q317.5,350.26599999999996,315.156,345.281Q315.156,344.406,316.328,338.547L315.156,328.281Q317.5,323.594,317.5,320.375Q315.156,292.547,313.98400000000004,288.438L306.078,289.60900000000004Q298.172,287.26599999999996,292.312,287.26599999999996Q288.203,290.781,284.406,290.781L271.797,290.781Q267.406,287.26599999999996,265.062,287.26599999999996Q262.719,288.438,261.547,288.438L261.547,289.60900000000004Q269.75,291.672,285.578,322.422Q285.578,333.26599999999996,262.719,338.547Q253.641,337.375,253.641,333.85900000000004L253.641,332.688Q253.641,328.578,254.812,322.422Q253.641,319.203,252.469,319.203L253.641,313.344L253.641,308.953Q253.641,296.35900000000004,235.469,288.438L222.875,288.438L214.969,290.781L207.062,289.60900000000004L205.89100000000002,291.672Q213.797,295.76599999999996,213.797,297.531L213.797,299.875Q213.797,305.438,202.375,314.51599999999996Q204.719,321.25,207.062,321.25L205.89100000000002,335.031Q210.281,354.953,210.281,360.219Q208.23399999999998,377.219,195.625,377.219Q181.8594,373.109,181.8594,370.484Q185.375,365.203,185.375,360.219Q184.2031,360.219,184.2031,359.047Q163.9844,359.047,147.5781,371.656Q143.4844,371.656,140.8438,373.703L137.3281,373.703Q126.2031,362.859,126.2031,348.797Q129.125,343.23400000000004,131.7656,335.031Q130.5938,332.969,130.5938,331.51599999999996L134.1094,325.938L134.1094,324.76599999999996Q134.1094,323.594,130.5938,313.344L131.7656,311Q129.4219,306.906,129.4219,301.922Q131.7656,286.094,137.3281,286.094Q149.3438,294.01599999999996,160.1875,294.01599999999996L171.6094,294.01599999999996L175.125,296.35900000000004L178.3438,296.35900000000004L190.9375,283.75L195.625,283.75L201.203,284.922L212.625,277.01599999999996L213.797,277.01599999999996Q218.48399999999998,277.01599999999996,222.875,282.578L225.219,282.578Q231.672,277.01599999999996,243.391,277.01599999999996Q251,280.23400000000004,272.969,281.406Q272.969,282.578,275.312,282.578Q279.125,280.531,282.062,280.531Q283.23400000000004,280.531,283.23400000000004,281.406L285.578,280.531L293.48400000000004,280.531Q301.688,282.578,302.562,282.578Q312.812,282.578,315.156,269.10900000000004Q317.5,269.10900000000004,317.5,266.76599999999996L317.5,265.594Q317.5,263.828,313.98400000000004,262.078L315.156,251.828Q315.156,251.234,313.98400000000004,237.172L306.078,236Q303.156,236,297,237.172Q295.828,237.172,293.48400000000004,236Q271.51599999999996,238.344,265.062,238.344L265.062,237.172L262.719,238.344Q255.391,238.344,248.078,237.172Q243.391,238.344,239.875,238.344Q236.359,236,233.125,236Q231.078,236,226.39100000000002,238.344Q220.531,236,218.188,236Q214.672,238.344,211.453,238.344Q210.578,238.344,202.375,236L196.7969,239.516L195.625,239.516Q192.7031,239.516,192.1094,234.828Q193.2812,232.484,193.2812,231.312L170.4375,239.516Q158.7188,234.828,151.5312,236Q144.3594,237.172,141.1406,237.172L136.4531,234.828Q134.4062,236,132.0625,236Q130.2969,236,126.2031,230.14100000000002L126.2031,225.75Q128.5469,221.062,132.9375,221.062Q143.4844,224.578,145.5312,224.578L159.0156,223.406L166.0469,223.406Q168.3906,223.406,170.4375,224.578Q180.1094,224.578,186.5469,217.844Q201.203,217.844,201.203,226.922L225.219,223.406Q238.406,224.578,244.562,226.922Q245.734,223.406,251.297,223.406L252.469,223.406L258.328,226.922Q271.797,223.98399999999998,271.797,215.5Q272.969,209.922,272.969,200.5469L272.969,193.8125Q272.969,192.0625,269.453,190.2969L230.781,190.2969Q228.438,190.2969,216.14100000000002,198.5Q212.328,196.1562,209.10899999999998,196.1562Q209.10899999999998,197.625,205.89100000000002,199.375Q199.4375,199.375,183.0312,196.1562L177.1719,196.1562Q174.5312,198.5,172.7812,198.5Q165.1562,198.5,153.4375,199.375Q152.5625,199.375,146.7031,198.5Q140.5469,199.375,135.2812,199.375Q127.0781,198.5,126.2031,198.5Q122.3906,200.5469,119.1719,200.5469L114.7656,200.5469Q113.0156,200.5469,111.25,197.3281L111.25,185.9062Q111.25,184.1406,114.7656,182.3906L116.8281,182.3906L121.5156,185.9062L129.4219,185.9062Q132.0625,185.9062,140.8438,190.2969Q141.4375,190.2969,153.4375,187.0781Q163.4062,188.25,166.0469,188.25Q166.9219,184.7344,172.7812,184.7344L173.9531,184.7344Q181.8594,187.0781,183.0312,187.0781Q183.3281,184.1406,195.625,180.0469Q197.0938,168.9062,205.89100000000002,168.9062Q209.10899999999998,172.1406,210.281,181.2188L212.625,182.3906L218.188,182.3906Q221.406,182.3906,225.219,180.0469Q232.547,182.3906,234.297,182.3906L242.219,180.0469L248.953,181.2188L272.969,179.1719L272.969,176.8281L274.14099999999996,169.7969L272.969,167.7344Q272.969,165.9844,275.312,155.1406Q270.625,150.1562,267.406,129.9531L267.406,128.7812Q271.219,123.2031,279.719,123.2031ZM193.2812,134.6406Q209.98399999999998,144.0156,209.98399999999998,160.7031Q207.344,163.0469,205.89100000000002,163.0469Q199.1406,160.7031,196.5156,160.7031L187.1406,160.7031Q185.0781,160.7031,185.0781,158.6562L185.0781,157.4844Q185.0781,154.5625,189.1875,153.9688Q189.1875,152.2188,185.0781,150.4531Q185.0781,152.2188,178.9375,157.4844L176.875,157.4844Q173.3594,153.9688,164.5781,153.9688L161.3594,153.9688Q143.7812,159.8281,141.7188,165.3906L139.6719,165.3906Q129.4219,160.7031,129.4219,148.4062Q130.8906,142.5469,136.75,142.5469L146.125,142.5469Q146.125,145.7656,174.8281,147.2344Q179.5156,147.2344,188.3125,134.6406L193.2812,134.6406ZM192.1094,243.906Q206.469,260.031,207.938,260.031Q210.281,260.312,210.281,262.078L210.281,264.422Q210.281,270.281,179.5156,270.281Q178.3438,266.76599999999996,172.7812,266.76599999999996Q172.7812,269.688,151.0938,272.328L138.5,269.10900000000004L131.7656,270.281L129.4219,270.281Q126.2031,269.10900000000004,126.2031,263.25L126.2031,258.85900000000004L130.5938,254.172L137.3281,255.344L153.4375,254.172Q166.9219,256.51599999999996,169.2656,256.51599999999996Q189.4844,243.906,192.1094,243.906ZM149.9219,315.688Q151.6875,320.375,153.4375,320.375L151.0938,349.969Q162.5312,348.797,168.0938,348.797L173.9531,348.797Q183.0312,348.797,183.0312,331.51599999999996L184.2031,313.344Q177.7656,307.781,166.9219,307.781Q159.5938,308.35900000000004,149.9219,315.688Z" fill="#FFFFFF" fill-opacity="1"/></g></g></svg>